<svg width="22" height="28" viewBox="0 0 22 28" fill="none" xmlns="http://www.w3.org/2000/svg">
<path d="M12.1386 2.43663C13.9117 0.0118214 16.3767 0 16.3767 0C16.3767 0 16.7434 2.27973 14.9819 4.47584C13.1011 6.82079 10.9632 6.43708 10.9632 6.43708C10.9632 6.43708 10.5618 4.59286 12.1386 2.43663ZM11.1887 8.03402C12.1009 8.03402 13.7939 6.73303 15.9975 6.73303C19.7906 6.73303 21.2828 9.5335 21.2828 9.5335C21.2828 9.5335 18.3643 11.0817 18.3643 14.8384C18.3643 19.0763 22 20.5368 22 20.5368C22 20.5368 19.4585 27.9589 16.0257 27.9589C14.4491 27.9589 13.2233 26.8565 11.562 26.8565C9.86907 26.8565 8.18906 28 7.09486 28C3.96018 28.0001 0 20.9595 0 15.3001C0 9.73198 3.35204 6.81104 6.49611 6.81104C8.54004 6.81104 10.1261 8.03402 11.1887 8.03402Z" fill="white"/>
</svg>
