<svg width="112" height="23" viewBox="0 0 112 23" fill="none" xmlns="http://www.w3.org/2000/svg">
<path d="M0.952148 0.600098H5.17615V9.7521H12.4081V0.600098H16.6321V23.0001H12.4081V13.7841H5.17615V23.0001H0.952148V0.600098ZM31.6575 18.2001H24.0415L22.9535 23.0001H18.5375L23.8815 0.600098H31.8175L37.1615 23.0001H32.7455L31.6575 18.2001ZM24.9375 14.1681H30.7295L28.1375 2.7121H27.5615L24.9375 14.1681ZM44.7949 15.1281H43.8349L37.403 0.600098H42.0109L46.6189 11.2881H47.195L51.8029 0.600098H56.4109L49.979 15.1281H49.0189V23.0001H44.7949V15.1281ZM58.4763 0.600098H73.4523V4.6321H68.0763V18.9681H73.4523V23.0001H58.4763V18.9681H63.8523V4.6321H58.4763V0.600098ZM77.8536 0.600098H82.0776V18.9681H92.2536V23.0001H77.8536V0.600098ZM96.911 0.600098H111.055V4.6321H101.135V9.7521H110.671V13.7841H101.135V18.9681H111.439V23.0001H96.911V0.600098Z" fill="#F2F2F2"/>
</svg>
