<svg width="112" height="23" viewBox="0 0 112 23" fill="none" xmlns="http://www.w3.org/2000/svg">
<path d="M0.952 0.599998H5.176V9.752H12.408V0.599998H16.632V23H12.408V13.784H5.176V23H0.952V0.599998ZM31.6574 18.2H24.0414L22.9534 23H18.5374L23.8814 0.599998H31.8174L37.1614 23H32.7454L31.6574 18.2ZM24.9374 14.168H30.7294L28.1374 2.712H27.5614L24.9374 14.168ZM44.7948 15.128H43.8348L37.4028 0.599998H42.0108L46.6188 11.288H47.1948L51.8028 0.599998H56.4108L49.9788 15.128H49.0188V23H44.7948V15.128ZM58.4762 0.599998H73.4522V4.632H68.0762V18.968H73.4522V23H58.4762V18.968H63.8522V4.632H58.4762V0.599998ZM77.8535 0.599998H82.0775V18.968H92.2535V23H77.8535V0.599998ZM96.9109 0.599998H111.055V4.632H101.135V9.752H110.671V13.784H101.135V18.968H111.439V23H96.9109V0.599998Z" fill="#0b2034"/>
</svg>
