<svg width="261" height="305" viewBox="0 0 261 305" fill="none" xmlns="http://www.w3.org/2000/svg">
<path d="M252.659 244.888C243.715 241.225 239.889 236.364 240.259 229.111C240.64 220.645 235.837 214.444 233.556 211.994C234.934 206.73 238.961 188.52 233.56 172.703C227.756 155.773 210.036 129.916 191.752 104.499C184.267 94.061 183.913 82.715 183.504 69.577C183.112 57.046 182.67 42.842 175.682 27.052C168.084 9.859 152.838 0 133.851 0C122.556 0 110.962 3.53 102.04 9.684C83.77 22.293 86.185 49.784 87.783 67.975C88.002 70.466 88.208 72.819 88.328 74.828C89.392 92.644 88.424 102.034 87.158 104.888C86.339 106.753 82.307 112.061 78.04 117.681C73.627 123.493 68.624 130.081 64.523 136.22C59.63 143.607 55.68 154.898 51.86 165.817C49.065 173.807 46.425 181.354 43.855 185.864C38.984 194.54 40.196 202.63 41.208 206.369C39.364 207.65 36.7 210.172 34.451 214.926C31.733 220.726 26.218 223.843 14.75 226.048C9.47999 227.126 5.84598 229.342 3.94598 232.634C1.18098 237.425 2.68699 243.445 4.06099 247.559C6.09099 253.607 4.82598 257.435 2.52598 264.385C1.99598 265.989 1.39498 267.805 0.785985 269.808C-0.173015 272.969 0.172986 275.843 1.81199 278.35C6.14299 284.971 18.781 287.306 31.791 288.842C39.559 289.764 48.061 292.871 56.284 295.877C64.341 298.821 72.672 301.866 80.245 302.79C81.396 302.935 82.536 303.008 83.635 303.008C95.069 303.008 100.235 295.421 101.873 292.304C105.98 291.466 120.145 288.782 134.744 288.422C149.32 288.006 163.423 290.884 167.418 291.779C168.674 294.183 171.985 299.674 177.263 302.503C180.164 304.089 184.201 304.998 188.336 304.998C188.337 304.998 188.336 304.998 188.337 304.998C192.753 304.998 201.154 303.954 207.803 296.959C214.435 289.931 231.005 280.959 243.105 274.408C245.805 272.946 248.331 271.578 250.546 270.343C257.343 266.575 261.052 261.191 260.721 255.572C260.445 250.905 257.356 246.811 252.659 244.888ZM102.189 243.535C101.343 237.575 93.676 231.664 84.797 224.82C77.537 219.223 69.308 212.88 67.041 207.508C62.356 196.426 66.049 176.94 72.488 166.906C75.67 161.882 78.269 154.263 80.783 146.895C83.497 138.939 86.304 130.713 89.443 127.112C94.414 121.49 99.008 110.551 99.822 101.93C104.477 106.374 111.698 112.013 118.369 112.013C119.396 112.013 120.393 111.879 121.346 111.61C125.91 110.292 132.623 106.413 139.115 102.663C144.712 99.429 151.614 95.441 154.211 95.078C158.664 101.472 184.539 158.733 187.183 177.122C189.275 191.672 187.065 203.7 185.954 208.411C185.06 208.289 183.994 208.19 182.874 208.19C175.667 208.19 173.759 212.124 173.262 214.473C171.984 220.576 171.849 240.091 171.835 244.476C169.229 247.787 156.05 263.379 137.129 266.182C129.422 267.302 122.225 267.87 115.739 267.87C110.195 267.87 106.657 267.442 105.188 267.219L95.68 256.34C99.429 254.489 103.177 250.583 102.189 243.535ZM114.254 64.149C113.957 64.277 113.665 64.414 113.378 64.56C113.349 63.916 113.282 63.263 113.179 62.608C112.141 56.633 108.179 52.296 103.76 52.296C103.433 52.296 103.104 52.321 102.743 52.376C100.114 52.814 98.052 54.789 96.922 57.589C97.913 51.445 101.394 46.896 105.524 46.896C110.374 46.896 114.471 53.432 114.471 61.168C114.471 62.143 114.4 63.113 114.254 64.149ZM151.94 68.756C152.384 67.342 152.624 65.812 152.624 64.224C152.624 57.21 148.174 51.715 142.493 51.715C136.941 51.715 132.424 57.326 132.424 64.224C132.424 64.694 132.447 65.165 132.491 65.635C132.197 65.522 131.91 65.412 131.63 65.306C130.991 63.371 130.668 61.352 130.668 59.291C130.668 50.904 136.028 44.08 142.618 44.08C149.207 44.08 154.568 50.904 154.568 59.291C154.568 62.78 153.605 66.11 151.94 68.756ZM147.081 85.08C146.986 85.504 146.784 85.692 144.55 86.854C143.422 87.441 142.018 88.172 140.261 89.242L139.087 89.953C134.369 92.813 123.322 99.512 120.323 99.905C118.286 100.179 117.026 99.389 114.193 97.464C113.554 97.029 112.874 96.567 112.149 96.102C107.042 92.751 103.757 89.06 103.386 87.617C105.051 86.33 109.178 83.109 111.291 81.202C115.58 77.214 119.896 74.534 122.032 74.534C122.145 74.534 122.247 74.542 122.353 74.562C124.863 75.005 131.054 77.476 135.576 79.28C137.666 80.114 139.471 80.834 140.741 81.29C144.742 82.664 146.828 84.422 147.081 85.08ZM183.028 271.45C185.285 261.269 187.885 247.419 187.464 239.254C187.367 237.399 187.203 235.38 187.044 233.428C186.747 229.778 186.306 224.353 186.761 222.744C186.851 222.702 186.951 222.666 187.062 222.635C187.081 227.303 188.095 236.614 195.541 239.861C197.76 240.829 200.296 241.319 203.078 241.319C210.537 241.319 218.813 237.66 222.203 234.27C224.199 232.274 225.878 229.832 227.054 227.898C227.311 228.651 227.469 229.635 227.386 230.903C226.943 237.788 230.289 246.922 236.657 250.288L237.584 250.775C239.852 251.965 245.876 255.128 245.973 256.628C245.972 256.629 245.922 256.805 245.586 257.117C244.077 258.496 238.766 261.208 233.63 263.831C224.519 268.483 214.192 273.756 209.554 278.634C203.024 285.506 195.638 290.122 191.178 290.122C190.641 290.122 190.152 290.054 189.717 289.916C184.873 288.406 180.886 281.417 183.028 271.45ZM17.917 245.477C17.423 243.165 17.033 241.34 17.452 239.572C17.756 238.262 24.223 236.858 26.985 236.259C30.868 235.416 34.884 234.545 37.51 232.951C41.061 230.8 42.984 226.833 44.68 223.333C45.908 220.802 47.176 218.185 48.685 217.326C48.77 217.276 48.9 217.218 49.148 217.218C51.975 217.218 57.907 223.161 61.325 228.48C62.192 229.821 63.798 232.508 65.656 235.619C71.213 244.917 78.822 257.652 82.796 261.92C86.377 265.757 92.174 273.134 90.748 279.461C89.704 284.37 84.146 288.362 82.835 289.245C82.359 289.353 81.77 289.408 81.077 289.408C73.471 289.408 58.415 283.08 50.326 279.68L49.129 279.177C44.612 277.283 37.238 276.09 30.107 274.936C24.433 274.017 16.663 272.76 15.375 271.624C14.331 270.453 15.542 266.646 16.61 263.287C17.379 260.873 18.173 258.377 18.608 255.764C19.225 251.596 18.499 248.203 17.917 245.477Z" fill="white"/>
</svg>
