<svg width="142" height="154" viewBox="0 0 142 154" fill="none" xmlns="http://www.w3.org/2000/svg">
<g filter="url(#filter0_d_116_726)">
<rect x="4" width="134" height="146" rx="20" fill="white" fill-opacity="0.4" shape-rendering="crispEdges"/>
<rect x="21" y="7" width="100" height="100" rx="50" fill="white" fill-opacity="0.4"/>
<path d="M104.186 29.0483L89.5355 21.9449C87.7596 21.0569 85.7618 21.5009 84.4299 22.8328L56.46 48.5828L44.251 39.2595C43.1411 38.3716 41.5872 38.3716 40.4773 39.4815L36.4816 43.0332C35.1497 44.1431 35.1497 46.141 36.4816 47.4729L47.1368 57.0181L36.4816 66.5634C35.1497 67.6733 35.1497 69.6712 36.4816 71.0031L40.4773 74.5548C41.5872 75.4427 43.1411 75.6647 44.251 74.7768L56.46 65.4535L84.4299 90.9815C85.7618 92.3134 87.7596 92.7574 89.5355 91.8694L104.186 84.766C105.74 84.1 106.628 82.5462 106.628 80.7703V33.044C106.628 31.4901 105.74 29.9362 104.186 29.0483ZM88.8695 73.2229L67.5592 57.0181L88.8695 40.8134V73.2229Z" fill="#AC59B7"/>
<path d="M19.5067 121L16.2867 113.85H18.0267L20.6767 119.75H20.8067L23.4567 113.85H25.1967L21.9767 121H19.5067ZM26.493 121V113.85H28.093V121H26.493ZM29.861 121.05V119.75L35.611 119.76C35.9044 119.76 36.1277 119.693 36.281 119.56C36.441 119.42 36.521 119.197 36.521 118.89C36.521 118.583 36.441 118.363 36.281 118.23C36.1277 118.09 35.9044 118.02 35.611 118.02H32.031C31.291 118.02 30.7144 117.843 30.301 117.49C29.8944 117.13 29.691 116.603 29.691 115.91C29.691 115.217 29.8944 114.693 30.301 114.34C30.7144 113.98 31.291 113.8 32.031 113.8H37.651V115.1L32.201 115.09C31.9144 115.09 31.691 115.157 31.531 115.29C31.371 115.417 31.291 115.623 31.291 115.91C31.291 116.197 31.371 116.407 31.531 116.54C31.691 116.667 31.9144 116.73 32.201 116.73H35.781C36.521 116.73 37.0944 116.913 37.501 117.28C37.9144 117.64 38.121 118.177 38.121 118.89C38.121 119.597 37.9144 120.133 37.501 120.5C37.0944 120.867 36.521 121.05 35.781 121.05H29.861ZM42.6142 121.05C41.8876 121.05 41.3142 120.957 40.8942 120.77C40.4742 120.577 40.1742 120.287 39.9942 119.9C39.8142 119.513 39.7242 119.027 39.7242 118.44V113.85H41.3242V118.44C41.3242 118.947 41.4409 119.293 41.6742 119.48C41.9142 119.66 42.3176 119.75 42.8842 119.75H44.8142C45.3809 119.75 45.7809 119.66 46.0142 119.48C46.2542 119.293 46.3742 118.947 46.3742 118.44V113.85H47.9742V118.44C47.9742 119.027 47.8842 119.513 47.7042 119.9C47.5242 120.287 47.2242 120.577 46.8042 120.77C46.3842 120.957 45.8109 121.05 45.0842 121.05H42.6142ZM49.1773 121L52.3973 113.85H54.8673L58.0873 121H56.3473L55.6673 119.49H51.5973L50.9173 121H49.1773ZM52.1773 118.19H55.0873L53.6973 115.1H53.5673L52.1773 118.19ZM59.4887 121V113.85H61.0887V119.7H66.3187V121H59.4887ZM71.7868 121.05V119.75L77.5368 119.76C77.8301 119.76 78.0535 119.693 78.2068 119.56C78.3668 119.42 78.4468 119.197 78.4468 118.89C78.4468 118.583 78.3668 118.363 78.2068 118.23C78.0535 118.09 77.8301 118.02 77.5368 118.02H73.9568C73.2168 118.02 72.6401 117.843 72.2268 117.49C71.8201 117.13 71.6168 116.603 71.6168 115.91C71.6168 115.217 71.8201 114.693 72.2268 114.34C72.6401 113.98 73.2168 113.8 73.9568 113.8H79.5768V115.1L74.1268 115.09C73.8401 115.09 73.6168 115.157 73.4568 115.29C73.2968 115.417 73.2168 115.623 73.2168 115.91C73.2168 116.197 73.2968 116.407 73.4568 116.54C73.6168 116.667 73.8401 116.73 74.1268 116.73H77.7068C78.4468 116.73 79.0201 116.913 79.4268 117.28C79.8401 117.64 80.0468 118.177 80.0468 118.89C80.0468 119.597 79.8401 120.133 79.4268 120.5C79.0201 120.867 78.4468 121.05 77.7068 121.05H71.7868ZM81.4 117.47V113.85H90.2V117.47H88.58V115.15H86.4V121H84.8V115.15H83.02V117.47H81.4ZM94.8373 121.05C94.1106 121.05 93.5373 120.957 93.1173 120.77C92.6973 120.577 92.3973 120.287 92.2173 119.9C92.0373 119.513 91.9473 119.027 91.9473 118.44V113.85H93.5473V118.44C93.5473 118.947 93.6639 119.293 93.8973 119.48C94.1373 119.66 94.5406 119.75 95.1073 119.75H97.0373C97.6039 119.75 98.0039 119.66 98.2373 119.48C98.4773 119.293 98.5973 118.947 98.5973 118.44V113.85H100.197V118.44C100.197 119.027 100.107 119.513 99.9273 119.9C99.7473 120.287 99.4473 120.577 99.0273 120.77C98.6073 120.957 98.0339 121.05 97.3073 121.05H94.8373ZM102.196 121V113.85H103.376L106.576 113.84C107.869 113.84 108.872 114.143 109.586 114.75C110.299 115.357 110.656 116.247 110.656 117.42C110.656 118.593 110.299 119.483 109.586 120.09C108.872 120.697 107.869 121 106.576 121H102.196ZM106.466 115.14H103.796V119.7H106.466C107.306 119.7 107.942 119.517 108.376 119.15C108.809 118.783 109.026 118.207 109.026 117.42C109.026 116.627 108.809 116.05 108.376 115.69C107.942 115.323 107.306 115.14 106.466 115.14ZM112.259 121V113.85H113.859V121H112.259ZM119.467 121.05C118.193 121.05 117.207 120.747 116.507 120.14C115.807 119.527 115.457 118.62 115.457 117.42C115.457 116.227 115.807 115.327 116.507 114.72C117.207 114.107 118.217 113.8 119.537 113.8H121.337C122.657 113.8 123.667 114.107 124.367 114.72C125.067 115.327 125.417 116.227 125.417 117.42C125.417 118.62 125.067 119.527 124.367 120.14C123.667 120.747 122.673 121.05 121.387 121.05H119.467ZM119.647 115.1C118.907 115.1 118.33 115.233 117.917 115.5C117.503 115.767 117.243 116.19 117.137 116.77H123.737C123.63 116.19 123.37 115.767 122.957 115.5C122.543 115.233 121.967 115.1 121.227 115.1H119.647ZM119.677 119.75H121.227C121.973 119.75 122.55 119.617 122.957 119.35C123.37 119.083 123.63 118.657 123.737 118.07H117.137C117.243 118.657 117.503 119.083 117.917 119.35C118.33 119.617 118.917 119.75 119.677 119.75ZM55.9107 133.05C54.5907 133.05 53.5807 132.747 52.8807 132.14C52.1807 131.527 51.8307 130.62 51.8307 129.42C51.8307 128.227 52.1807 127.323 52.8807 126.71C53.5807 126.097 54.5907 125.793 55.9107 125.8L59.5107 125.82V127.1H56.0207C55.154 127.1 54.5107 127.283 54.0907 127.65C53.6707 128.017 53.4607 128.607 53.4607 129.42C53.4607 130.233 53.6707 130.827 54.0907 131.2C54.5107 131.567 55.154 131.75 56.0207 131.75H59.6107V133.05H55.9107ZM64.6243 133.05C63.3509 133.05 62.3643 132.747 61.6643 132.14C60.9643 131.527 60.6143 130.62 60.6143 129.42C60.6143 128.227 60.9643 127.327 61.6643 126.72C62.3643 126.107 63.3743 125.8 64.6943 125.8H66.4943C67.8143 125.8 68.8243 126.107 69.5243 126.72C70.2243 127.327 70.5743 128.227 70.5743 129.42C70.5743 130.62 70.2243 131.527 69.5243 132.14C68.8243 132.747 67.8309 133.05 66.5443 133.05H64.6243ZM64.8043 127.1C64.0643 127.1 63.4876 127.233 63.0743 127.5C62.6609 127.767 62.4009 128.19 62.2943 128.77H68.8943C68.7876 128.19 68.5276 127.767 68.1143 127.5C67.7009 127.233 67.1243 127.1 66.3843 127.1H64.8043ZM64.8343 131.75H66.3843C67.1309 131.75 67.7076 131.617 68.1143 131.35C68.5276 131.083 68.7876 130.657 68.8943 130.07H62.2943C62.4009 130.657 62.6609 131.083 63.0743 131.35C63.4876 131.617 64.0743 131.75 64.8343 131.75ZM72.1709 133V125.85H73.3509L76.5509 125.84C77.8442 125.84 78.8476 126.143 79.5609 126.75C80.2742 127.357 80.6309 128.247 80.6309 129.42C80.6309 130.593 80.2742 131.483 79.5609 132.09C78.8476 132.697 77.8442 133 76.5509 133H72.1709ZM76.4409 127.14H73.7709V131.7H76.4409C77.2809 131.7 77.9176 131.517 78.3509 131.15C78.7842 130.783 79.0009 130.207 79.0009 129.42C79.0009 128.627 78.7842 128.05 78.3509 127.69C77.9176 127.323 77.2809 127.14 76.4409 127.14ZM82.2338 133V125.85H90.0738V127.15H83.8338V128.73H89.4938V130.03H83.8338V131.7H90.0738V133H82.2338Z" fill="#AC59B7"/>
</g>
<defs>
<filter id="filter0_d_116_726" x="0" y="0" width="142" height="154" filterUnits="userSpaceOnUse" color-interpolation-filters="sRGB">
<feFlood flood-opacity="0" result="BackgroundImageFix"/>
<feColorMatrix in="SourceAlpha" type="matrix" values="0 0 0 0 0 0 0 0 0 0 0 0 0 0 0 0 0 0 127 0" result="hardAlpha"/>
<feOffset dy="4"/>
<feGaussianBlur stdDeviation="2"/>
<feComposite in2="hardAlpha" operator="out"/>
<feColorMatrix type="matrix" values="0 0 0 0 0 0 0 0 0 0 0 0 0 0 0 0 0 0 0.25 0"/>
<feBlend mode="normal" in2="BackgroundImageFix" result="effect1_dropShadow_116_726"/>
<feBlend mode="normal" in="SourceGraphic" in2="effect1_dropShadow_116_726" result="shape"/>
</filter>
</defs>
</svg>
