<svg width="40" height="40" viewBox="0 0 40 40" fill="none" xmlns="http://www.w3.org/2000/svg">
<path d="M30 30V35H10V30H7.5V35C7.5 35.663 7.76339 36.2989 8.23223 36.7678C8.70107 37.2366 9.33696 37.5 10 37.5H30C30.663 37.5 31.2989 37.2366 31.7678 36.7678C32.2366 36.2989 32.5 35.663 32.5 35V30H30Z" fill="white"/>
<path d="M26.25 26.25L24.4825 24.4825L21.25 27.715V17.5H18.75V27.715L15.5175 24.4825L13.75 26.25L20 32.5L26.25 26.25ZM35 5V2.5H27.5V15H30V10H33.75V7.5H30V5H35ZM21.25 15H16.25V2.5H21.25C22.2443 2.50099 23.1975 2.8964 23.9006 3.59945C24.6036 4.30249 24.999 5.25574 25 6.25V11.25C24.999 12.2443 24.6036 13.1975 23.9006 13.9006C23.1975 14.6036 22.2443 14.999 21.25 15V15ZM18.75 12.5H21.25C21.5814 12.4997 21.8992 12.3679 22.1335 12.1335C22.3679 11.8992 22.4997 11.5814 22.5 11.25V6.25C22.4997 5.91858 22.3679 5.60083 22.1335 5.36648C21.8992 5.13213 21.5814 5.00033 21.25 5H18.75V12.5ZM11.25 2.5H5V15H7.5V11.25H11.25C11.9127 11.249 12.548 10.9853 13.0167 10.5167C13.4853 10.048 13.749 9.41274 13.75 8.75V5C13.7493 4.33716 13.4857 3.70166 13.017 3.23296C12.5483 2.76427 11.9128 2.50066 11.25 2.5V2.5ZM7.5 8.75V5H11.25L11.2513 8.75H7.5Z" fill="white"/>
</svg>
