<svg width="35" height="30" viewBox="0 0 35 35" fill="none" xmlns="http://www.w3.org/2000/svg">
<path d="M17.4344 2.77806C17.4043 2.78353 17.3743 2.79174 17.3469 2.79994C17.0215 2.87377 16.7918 3.16635 16.8 3.49994V7.69994C16.7973 7.9515 16.9286 8.18666 17.1473 8.31517C17.3661 8.44096 17.634 8.44096 17.8528 8.31517C18.0715 8.18666 18.2028 7.9515 18.2 7.69994V3.49994C18.2082 3.2976 18.1262 3.10346 17.9813 2.96674C17.8336 2.82728 17.634 2.75892 17.4344 2.77806ZM7.45942 6.89056C7.19692 6.93705 6.98637 7.12846 6.91254 7.38275C6.83871 7.63978 6.91528 7.91322 7.10942 8.09369L10.0844 11.0687C10.2539 11.2765 10.5247 11.3722 10.7872 11.312C11.0469 11.2519 11.252 11.0468 11.3122 10.787C11.3723 10.5245 11.2766 10.2538 11.0688 10.0843L8.09379 7.10931C7.94887 6.95346 7.73832 6.87416 7.52504 6.89056C7.50317 6.89056 7.48129 6.89056 7.45942 6.89056ZM27.3219 6.89056C27.1633 6.91244 27.0157 6.99174 26.9063 7.10931L23.9313 10.0843C23.7235 10.2538 23.6278 10.5245 23.6879 10.787C23.7481 11.0468 23.9532 11.2519 24.2129 11.312C24.4754 11.3722 24.7461 11.2765 24.9157 11.0687L27.8907 8.09369C28.1094 7.88588 28.1723 7.56049 28.0438 7.28705C27.9125 7.01088 27.6227 6.85228 27.3219 6.89056ZM17.4344 10.4999C17.4125 10.5054 17.3907 10.5136 17.3688 10.5218C17.325 10.5245 17.2813 10.5328 17.2375 10.5437C17.2293 10.5519 17.2239 10.5574 17.2157 10.5656C13.5024 10.7242 10.5 13.7484 10.5 17.4999C10.5 21.3527 13.6473 24.4999 17.5 24.4999C21.3528 24.4999 24.5 21.3527 24.5 17.4999C24.5 13.762 21.5223 10.7488 17.8282 10.5656C17.8036 10.5656 17.7872 10.5437 17.7625 10.5437C17.6914 10.5163 17.6176 10.5027 17.5438 10.4999C17.5301 10.4999 17.5137 10.4999 17.5 10.4999C17.4782 10.4999 17.4563 10.4999 17.4344 10.4999ZM17.4563 11.8999C17.47 11.8999 17.4864 11.8999 17.5 11.8999C17.5219 11.8999 17.5438 11.8999 17.5657 11.8999C20.6282 11.9355 23.1 14.4292 23.1 17.4999C23.1 20.5953 20.5954 23.0999 17.5 23.0999C14.4075 23.0999 11.9 20.5953 11.9 17.4999C11.9 14.421 14.3829 11.9245 17.4563 11.8999ZM3.30317 16.7999C2.91762 16.8546 2.64692 17.2128 2.7016 17.5984C2.75629 17.9839 3.11449 18.2546 3.50004 18.1999H7.70004C7.9516 18.2027 8.18676 18.0714 8.31528 17.8527C8.44106 17.6339 8.44106 17.366 8.31528 17.1472C8.18676 16.9285 7.9516 16.7972 7.70004 16.7999H3.50004C3.47817 16.7999 3.45629 16.7999 3.43442 16.7999C3.41254 16.7999 3.39067 16.7999 3.36879 16.7999C3.34692 16.7999 3.32504 16.7999 3.30317 16.7999ZM27.1032 16.7999C26.7176 16.8546 26.4469 17.2128 26.5016 17.5984C26.5563 17.9839 26.9145 18.2546 27.3 18.1999H31.5C31.7516 18.2027 31.9868 18.0714 32.1153 17.8527C32.2411 17.6339 32.2411 17.366 32.1153 17.1472C31.9868 16.9285 31.7516 16.7972 31.5 16.7999H27.3C27.2782 16.7999 27.2563 16.7999 27.2344 16.7999C27.2125 16.7999 27.1907 16.7999 27.1688 16.7999C27.1469 16.7999 27.125 16.7999 27.1032 16.7999ZM10.5 23.7124C10.3414 23.7343 10.1938 23.8136 10.0844 23.9312L7.10942 26.9062C6.9016 27.0757 6.8059 27.3464 6.86606 27.6089C6.92621 27.8687 7.13129 28.0738 7.39106 28.1339C7.65356 28.1941 7.92426 28.0984 8.09379 27.8906L11.0688 24.9156C11.2766 24.716 11.3395 24.407 11.2274 24.1417C11.118 23.8765 10.8528 23.707 10.5657 23.7124C10.5438 23.7124 10.5219 23.7124 10.5 23.7124ZM24.2813 23.7124C24.0188 23.7589 23.8082 23.9503 23.7344 24.2046C23.6606 24.4617 23.7372 24.7351 23.9313 24.9156L26.9063 27.8906C27.0758 28.0984 27.3465 28.1941 27.609 28.1339C27.8688 28.0738 28.0739 27.8687 28.134 27.6089C28.1942 27.3464 28.0985 27.0757 27.8907 26.9062L24.9157 23.9312C24.7844 23.7917 24.6039 23.7152 24.4125 23.7124C24.3907 23.7124 24.3688 23.7124 24.3469 23.7124C24.325 23.7124 24.3032 23.7124 24.2813 23.7124ZM17.4344 26.5781C17.4043 26.5835 17.3743 26.5917 17.3469 26.5999C17.0215 26.6738 16.7918 26.9663 16.8 27.2999V31.4999C16.7973 31.7515 16.9286 31.9867 17.1473 32.1152C17.3661 32.241 17.634 32.241 17.8528 32.1152C18.0715 31.9867 18.2028 31.7515 18.2 31.4999V27.2999C18.2082 27.0976 18.1262 26.9035 17.9813 26.7667C17.8336 26.6273 17.634 26.5589 17.4344 26.5781Z" fill="white"/>
</svg>
