<svg width="103" height="103" viewBox="0 0 103 103" fill="none" xmlns="http://www.w3.org/2000/svg">
<g clip-path="url(#clip0_296_910)">
<path d="M99.6203 10.9698L78.3766 0.669834C75.8016 -0.617666 72.9047 0.0260837 70.9734 1.95733L30.4172 39.2948L12.7141 25.7761C11.1047 24.4886 8.85156 24.4886 7.24219 26.098L1.44844 31.248C-0.482813 32.8573 -0.482813 35.7542 1.44844 37.6855L16.8984 51.5261L1.44844 65.3667C-0.482813 66.9761 -0.482813 69.873 1.44844 71.8042L7.24219 76.9542C8.85156 78.2417 11.1047 78.5636 12.7141 77.2761L30.4172 63.7573L70.9734 100.773C72.9047 102.704 75.8016 103.348 78.3766 102.06L99.6203 91.7605C101.873 90.7948 103.161 88.5417 103.161 85.9667V16.7636C103.161 14.5105 101.873 12.2573 99.6203 10.9698ZM77.4109 75.023L46.5109 51.5261L77.4109 28.0292V75.023Z" fill="#0B2034"/>
</g>
<defs>
<clipPath id="clip0_296_910">
<rect width="103" height="103" fill="white"/>
</clipPath>
</defs>
</svg>
